<?xml version="1.0" encoding="utf-8"?>
<!-- Generator: Adobe Illustrator 21.1.0, SVG Export Plug-In . SVG Version: 6.00 Build 0)  -->
<svg version="1.1" id="Layer_1" xmlns="http://www.w3.org/2000/svg" xmlns:xlink="http://www.w3.org/1999/xlink" x="0px" y="0px"
	 viewBox="0 0 41.5 64" style="enable-background:new 0 0 41.5 64;" xml:space="preserve">
<style type="text/css">
	.st0{fill:#DED5C8;}
	.st1{fill:#1D724D;}
</style>
<g>
	<path class="st0" d="M3.1,10.9h35.2l-3.5,50.5c-10,1.5-15.9,1.5-27,0L3.1,10.9z"/>
	<path class="st0" d="M5.5,3.8H36c1.3,0,2.3,1.1,2.3,2.3l0,0c0,1.3-1.1,2.3-2.3,2.3H5.5c-1.3,0-2.3-1.1-2.3-2.3l0,0
		C3.1,4.9,4.2,3.8,5.5,3.8z"/>
	<path class="st0" d="M9.6,1.9c0.4-0.3,0.8-0.4,1.3-0.4h19.6C31,1.5,31.5,1.7,32,2l0,0c1.7,1.4,0.8,4.2-1.5,4.2H10.9
		C8.6,6.2,7.7,3.2,9.6,1.9L9.6,1.9z"/>
	<circle class="st1" cx="20.8" cy="33.2" r="10.6"/>
</g>
</svg>
